<svg xmlns="http://www.w3.org/2000/svg" viewBox="0 0 200 200" width="200" height="200">
  <!-- Background -->
  <rect width="200" height="200" fill="white"/>
  
  <!-- Shopping Bag Handle -->
  <path d="M70 55 Q100 25 130 55" stroke="#1B2A4A" stroke-width="8" fill="none" stroke-linecap="round"/>
  
  <!-- Shopping Bag Body (Orange) -->
  <path d="M55 60 L55 140 Q55 155 70 155 L130 155 Q145 155 145 140 L145 60 Z" fill="#FF6B35"/>
  
  <!-- Letter M (Navy) -->
  <path d="M65 75 L65 135 L80 135 L80 100 L95 120 L110 100 L110 135 L125 135 L125 75 L110 75 L95 95 L80 75 Z" fill="#1B2A4A"/>
  
  <!-- Letter B (Orange) -->
  <path d="M130 75 L130 135 L155 135 Q170 135 170 120 Q170 105 155 105 Q165 105 165 95 Q165 75 150 75 Z M145 85 Q155 85 155 95 Q155 105 145 105 L145 85 Z M145 115 L155 115 Q160 115 160 120 Q160 125 155 125 L145 125 Z" fill="#FF6B35"/>
  
  <!-- Price Tag -->
  <path d="M75 125 L85 115 L95 125 L85 135 Z" fill="#FF6B35"/>
  <circle cx="85" cy="120" r="2" fill="white"/>
  
  <!-- Shopping Cart -->
  <circle cx="140" cy="140" r="4" fill="#FF6B35"/>
  <circle cx="155" cy="140" r="4" fill="#FF6B35"/>
  <path d="M125 130 L135 130 L145 140 L150 140" stroke="#FF6B35" stroke-width="3" fill="none"/>
</svg>